HIERARCHY
ROOT hip
{
	OFFSET 0.000000 0.000000 0.000000 
	CHANNELS 6 Xposition Yposition Zposition Xrotation Zrotation Yrotation
	JOINT abdomen
	{
		OFFSET 0.000000 3.402643 0.000000 
		CHANNELS 3 Xrotation Zrotation Yrotation
		JOINT chest
		{
			OFFSET 0.000000 8.438565 -0.680529 
			CHANNELS 3 Xrotation Zrotation Yrotation
			JOINT neck
			{
				OFFSET 0.000000 10.207942 -0.272212 
				CHANNELS 3 Xrotation Zrotation Yrotation
				JOINT head
				{
					OFFSET 0.000000 3.130431 0.000000 
					CHANNELS 3 Xrotation Zrotation Yrotation
					End Site
					{
						OFFSET 0.000000 3.130435 0.000000 
					}
				}
			}
			JOINT lCollar
			{
				OFFSET 3.470700 6.669187 -0.816635 
				CHANNELS 3 Yrotation Zrotation Xrotation
				JOINT lShldr
				{
					OFFSET 3.198488 0.000000 0.000000 
					CHANNELS 3 Zrotation Yrotation Xrotation
					JOINT lForeArm
					{
						OFFSET 10.139888 0.000000 0.000000 
						CHANNELS 3 Yrotation Zrotation Xrotation
						JOINT lHand
						{
							OFFSET 8.370511 0.000000 0.000000 
							CHANNELS 3 Zrotation Yrotation Xrotation
							End Site
							{
								OFFSET 4.083176 0.000000 0.000000 
							}
						}
					}
				}
			}
			JOINT rCollar
			{
				OFFSET -3.470700 6.669187 -0.816635 
				CHANNELS 3 Yrotation Zrotation Xrotation
				JOINT rShldr
				{
					OFFSET -3.198488 0.000000 0.000000 
					CHANNELS 3 Zrotation Yrotation Xrotation
					JOINT rForeArm
					{
						OFFSET -10.139888 0.000000 0.000000 
						CHANNELS 3 Yrotation Zrotation Xrotation
						JOINT rHand
						{
							OFFSET -8.370511 0.000000 0.000000 
							CHANNELS 3 Zrotation Yrotation Xrotation
							End Site
							{
								OFFSET -4.083176 0.000000 0.000000 
							}
						}
					}
				}
			}
		}
	}
	JOINT lThigh
	{
		OFFSET 5.308129 -1.633274 1.361059 
		CHANNELS 3 Xrotation Zrotation Yrotation
		JOINT lShin
		{
			OFFSET -2.041588 -20.007561 0.000000 
			CHANNELS 3 Xrotation Zrotation Yrotation
			JOINT lFoot
			{
				OFFSET 0.000000 -19.190928 -1.224953 
				CHANNELS 3 Xrotation Yrotation Zrotation
				End Site
				{
					OFFSET 0.000000 -2.449906 4.627600 
				}
			}
		}
	}
	JOINT rThigh
	{
		OFFSET -5.308129 -1.633274 1.361059 
		CHANNELS 3 Xrotation Zrotation Yrotation
		JOINT rShin
		{
			OFFSET 2.041588 -20.007561 0.000000 
			CHANNELS 3 Xrotation Zrotation Yrotation
			JOINT rFoot
			{
				OFFSET 0.000000 -19.190928 -1.224953 
				CHANNELS 3 Xrotation Yrotation Zrotation
				End Site
				{
					OFFSET 0.000000 -2.449906 4.627600 
				}
			}
		}
	}
}
MOTION
Frames: 15
Frame Time: 0.033333
-7.000112 49.688633 58.881069 2.652381 18.867916 90.322433 41.406219 -4.540239 2.360175 -20.839844 -0.007467 -0.001337 -1.662104 15.433554 14.208221 -5.806170 -1.925131 0.391980 -6.249050 -0.109138 -0.001707 -48.942425 -10.751256 -1.272117 -0.566650 3.361428 23.188704 -0.513470 -2.919216 1.261116 3.250129 0.108978 -0.003601 72.571228 -21.988365 -20.975895 51.090332 -0.290556 25.296221 -0.495908 -0.518102 38.251968 12.795589 13.364305 11.644993 24.205223 -5.383341 -1.107718 -15.067460 -10.054317 18.159271 11.705797 -17.731890 -9.269203 24.043921 5.532855 1.987875 -14.124044 -1.277624 -13.315581 
-7.163442 49.483952 58.648632 1.452171 18.519848 89.641960 42.802952 -3.342478 2.284527 -20.839844 -0.007467 -0.001337 -2.377096 15.674736 13.617027 -5.806170 -1.925131 0.391980 -6.249050 -0.109138 -0.001707 -53.829231 -11.374013 1.963714 -3.246267 1.961117 27.482822 -0.309881 -3.233189 4.273991 3.250129 0.108978 -0.003601 74.684059 -21.655102 -20.096994 54.576244 0.221049 28.997599 4.308344 2.835024 43.312263 10.427767 14.324961 11.068727 27.740597 -4.933414 -1.795577 -15.710803 -8.892415 18.841883 10.173778 -16.580523 -7.844556 25.108513 5.015784 1.949022 -13.977761 -1.876096 -13.116862 
-7.490629 49.189220 58.370663 -0.103005 18.544895 88.054878 45.405296 -2.191631 1.759258 -20.839844 -0.007467 -0.001337 -3.453820 16.279116 14.621152 -5.806170 -1.925131 0.391980 -6.249050 -0.109138 -0.001707 -59.790993 -12.425650 6.762073 -4.756072 2.053669 33.052013 -1.269369 -3.934730 7.076656 3.250129 0.108978 -0.003601 75.296478 -20.430452 -19.025156 59.515869 0.614972 32.953114 12.760188 5.676422 49.615242 8.726048 15.482997 11.257000 31.098152 -4.525129 -1.920315 -16.734337 -8.155854 19.792423 7.847191 -15.374196 -6.296638 27.584011 4.635821 2.161923 -13.927467 -1.959636 -14.356919 
-7.999982 48.778812 57.996883 -1.805853 18.848719 85.425171 49.278900 -1.867875 0.340684 -20.839844 -0.007467 -0.001337 -5.608606 17.803389 16.994970 -5.806170 -1.925131 0.391980 -6.249050 -0.109138 -0.001707 -65.139694 -13.777420 12.675247 -5.568285 3.382583 39.434841 -2.181072 -5.165523 8.648374 3.250129 0.108978 -0.003601 74.026863 -18.544413 -17.859737 68.130127 1.190565 35.174320 20.941658 8.693509 54.139603 7.573957 16.078634 11.097946 34.224178 -4.056998 -1.298730 -18.401438 -6.400938 19.593237 3.405770 -15.266644 -6.451190 33.099262 3.991307 3.423903 -10.063066 0.651842 -14.735929 
-8.621884 48.258461 57.501141 -3.511420 18.483231 81.533775 53.174370 -2.325876 -1.759338 -20.839844 -0.007467 -0.001337 -8.643100 20.084427 20.074930 -5.806170 -1.925131 0.391980 -6.249050 -0.109138 -0.001707 -67.707619 -14.277996 16.950821 -7.563644 3.543245 45.416546 -1.666449 -6.421128 10.672499 3.250129 0.108978 -0.003601 71.009819 -16.466759 -16.776354 81.411560 1.830817 32.782120 24.205187 10.906459 51.847435 5.947152 16.689587 11.355573 37.749039 -3.996605 -0.204491 -20.352112 -4.419486 18.170870 -4.842098 -15.577056 -5.824358 41.486561 2.851426 6.120176 0.290553 3.501987 -14.218591 
-9.178870 47.658546 56.970871 -5.492930 16.587866 77.139687 55.558899 -2.194185 -3.584240 -20.839844 -0.007467 -0.001337 -11.721004 21.810865 22.740301 -5.806170 -1.925131 0.391980 -6.249050 -0.109138 -0.001707 -68.171867 -13.724016 18.552299 -9.981730 2.226795 49.507156 -0.900409 -7.026852 13.570414 3.250129 0.108978 -0.003601 65.792572 -14.159021 -16.184595 97.843018 0.218910 24.743425 21.744394 9.922718 40.460464 2.987014 18.961498 13.319723 42.096413 -4.731085 0.568411 -22.234123 -4.044330 17.014494 -17.066988 -14.547782 -3.012871 52.241787 1.709195 8.759262 9.341368 4.770205 -13.454413 
-9.483016 47.096840 56.528519 -7.367832 13.340220 73.956192 56.155468 -0.073353 -5.208854 -20.839844 -0.007467 -0.001337 -14.907718 22.638580 24.399956 -5.806170 -1.925131 0.391980 -6.249050 -0.109138 -0.001707 -67.929733 -13.114087 19.078465 -10.702120 0.250670 52.251881 -0.919242 -6.821032 16.181950 3.250129 0.108978 -0.003601 58.755104 -10.902809 -16.996155 113.822906 2.800950 14.329417 16.836960 5.841961 24.169346 -1.064973 22.646017 15.696886 46.515682 -5.494081 0.480604 -24.063541 -4.800166 16.496130 -30.369333 -12.890059 -1.099380 63.007130 1.142540 9.680990 11.916957 5.553583 -12.841787 
-9.432761 46.781708 56.196625 -8.572042 10.489640 72.413795 55.978573 2.918578 -7.223110 -20.839844 -0.007467 -0.001337 -17.898981 23.563864 25.214323 -5.806170 -1.925131 0.391980 -6.249050 -0.109138 -0.001707 -68.389137 -12.210109 20.196825 -9.184838 -0.326138 55.384418 -0.944624 -6.614423 17.787516 3.250129 0.108978 -0.003601 52.970451 -7.958903 -19.376160 124.568855 0.434092 7.120235 12.174748 3.131436 10.464543 -4.248661 25.189020 16.718481 49.214386 -5.620378 0.237468 -25.324331 -5.015619 16.053656 -41.252296 -12.605511 -0.461065 71.515556 1.153081 9.181673 9.697867 5.013922 -13.355171 
-9.011886 46.813637 55.986191 -9.072578 9.568558 70.881905 55.542431 4.463449 -8.966941 -20.839844 -0.007467 -0.001337 -19.304829 24.479418 25.519533 -5.806170 -1.925131 0.391980 -6.249050 -0.109138 -0.001707 -71.020363 -9.805663 22.133121 -6.547027 1.819036 59.133072 -0.949790 -6.739619 18.648899 3.250129 0.108978 -0.003601 51.531296 -7.511055 -21.103731 128.916183 -1.191393 4.762873 6.755531 4.107725 4.446306 -4.082428 25.221640 16.727325 49.310268 -5.553101 0.828344 -25.802345 -3.951323 15.481044 -47.419907 -13.808299 -0.171002 76.409676 0.889107 8.095541 6.850209 3.538744 -15.188823 
-8.254926 47.138725 55.931213 -9.184383 10.366397 68.187866 54.447266 3.964880 -9.495612 -20.839844 -0.007467 -0.001337 -18.169197 24.274582 25.776489 -5.806170 -1.925131 0.391980 -6.249050 -0.109138 -0.001707 -75.067833 -6.389285 23.450335 -3.733113 4.316921 61.457142 -1.621547 -6.682143 18.932226 3.250129 0.108978 -0.003601 55.070454 -9.168195 -20.592415 128.596130 -0.900457 4.819263 1.282140 5.715192 4.549701 -0.246214 23.266142 16.689547 46.936531 -5.884701 2.524632 -25.482147 -1.990374 14.914202 -48.992653 -14.862946 0.429239 77.514023 -0.126274 7.037757 5.080147 1.901035 -17.146648 
-7.226789 47.648079 56.057388 -8.959500 11.772777 64.857697 52.211494 2.825701 -9.036666 -20.839844 -0.007467 -0.001337 -14.609470 22.419764 26.263756 -5.806170 -1.925131 0.391980 -6.249050 -0.109138 -0.001707 -78.664330 -3.237410 23.069715 -1.526345 4.209550 61.183578 -2.381765 -6.433850 18.892008 3.250129 0.108978 -0.003601 62.056789 -12.433466 -18.792938 124.839981 0.919912 4.374058 -1.556182 5.864763 5.889593 5.457915 20.232597 16.727619 42.552261 -6.753129 4.880653 -24.213581 -0.156758 14.296408 -47.098030 -15.644402 1.179067 74.939049 -1.464724 6.465147 4.369412 0.687873 -18.291071 
-5.990843 48.238564 56.403931 -8.515088 13.410699 61.812202 49.094055 2.244803 -8.274178 -20.839844 -0.007467 -0.001337 -9.559792 19.174706 26.976812 -5.806170 -1.925131 0.391980 -6.249050 -0.109138 -0.001707 -81.329353 -0.455406 21.562452 0.048941 1.881397 59.939522 -2.459143 -6.576210 19.271473 3.250129 0.108978 -0.003601 69.922539 -16.599379 -17.239239 116.348404 3.705628 2.709489 -1.361201 3.864874 5.412746 11.811464 16.656878 16.436401 36.514835 -7.718100 7.433643 -21.850430 1.049610 13.285233 -42.073376 -16.843662 1.484948 68.632668 -2.510565 6.727282 4.124327 0.294645 -18.721409 
-4.625594 48.735882 57.002274 -8.338885 15.903245 59.499287 46.491886 2.018726 -7.605811 -20.839844 -0.007467 -0.001337 -4.737833 15.588824 27.568293 -5.806170 -1.925131 0.391980 -6.249050 -0.109138 -0.001707 -83.316345 1.777930 19.968159 2.220824 -0.729132 59.192139 -1.899777 -6.894766 20.239969 3.250129 0.108978 -0.003601 76.567749 -18.869875 -16.347809 100.403679 5.360775 0.678308 0.921991 -1.382717 1.864327 19.111654 12.966340 15.611403 29.781687 -8.246984 9.893939 -19.194391 1.646947 12.299000 -33.390133 -18.804335 0.767005 58.762802 -2.869998 7.972218 2.963526 0.875989 -18.518484 
-3.273947 48.886127 57.821529 -8.959060 19.939482 58.095764 45.902306 1.622084 -7.366524 -20.839844 -0.007467 -0.001337 -0.975220 12.950227 27.641294 -5.806170 -1.925131 0.391980 -6.249050 -0.109138 -0.001707 -83.873482 3.704152 18.804943 2.751595 -2.750189 59.177490 -1.927978 -6.645437 20.701567 3.250129 0.108978 -0.003601 81.342537 -17.163622 -15.507138 77.517960 6.281023 -0.971705 3.900956 -10.490197 -3.230346 27.443289 9.892543 14.352871 24.156614 -8.205248 11.572039 -17.072344 1.610813 12.560986 -20.776255 -21.430248 -1.686472 46.253254 -2.156961 9.871858 0.074471 2.841661 -17.976318 
-2.145309 48.499268 58.755428 -9.829299 24.241781 57.720192 46.644840 0.886760 -6.991009 -20.839844 -0.007467 -0.001337 1.918311 11.311759 26.462963 -5.806170 -1.925131 0.391980 -6.249050 -0.109138 -0.001707 -82.551216 4.399938 18.823172 1.724010 -4.921646 60.104935 -2.740712 -6.334180 20.481459 3.250129 0.108978 -0.003601 84.669746 -13.917131 -14.855970 51.061550 2.780092 -2.857625 4.321541 -20.873459 -6.333578 34.092228 8.164478 12.803075 22.349182 -7.821742 11.782625 -16.679010 1.767178 13.559786 -7.451025 -23.386738 -4.919124 33.815273 -0.770829 11.783282 -3.294190 4.994902 -17.274137 
